<svg width="22" height="22" viewBox="0 0 22 22" fill="none" xmlns="http://www.w3.org/2000/svg">
<path d="M11 22C10.5573 22 10.1146 21.9306 9.68929 21.8003L4.67212 20.2379C3.28329 19.8039 2.19826 18.7189 1.76425 17.33L0.201815 12.3129C-0.0672716 11.4535 -0.0672716 10.5508 0.201815 9.69146L1.76425 4.64826C2.19826 3.25074 3.29197 2.16572 4.68948 1.73171L9.70665 0.195305C10.5573 -0.0651016 11.4514 -0.0651016 12.302 0.195305L17.3366 1.74039C18.7341 2.1744 19.8278 3.2681 20.2618 4.66561L21.8069 9.70013C22.0673 10.5508 22.0673 11.4449 21.8069 12.2955L20.2618 17.3127C19.8365 18.7102 18.7427 19.8039 17.3452 20.2379L12.302 21.8003C11.8767 21.9306 11.434 22 10.9913 22H11ZM11 1.84454C10.7483 1.84454 10.4879 1.87927 10.2448 1.95739L5.22766 3.49378C4.41172 3.74551 3.77806 4.37917 3.52634 5.19511L1.9639 10.2383C1.80765 10.7418 1.80765 11.2713 1.9639 11.766L3.52634 16.7832C3.77806 17.5905 4.41172 18.2328 5.22766 18.4845L10.2448 20.047C10.7483 20.2032 11.2691 20.2032 11.7725 20.047L16.8157 18.4845C17.6317 18.2328 18.2653 17.5905 18.5171 16.7832L20.0535 11.766C20.2097 11.2713 20.2097 10.7504 20.0535 10.247L18.5084 5.21247C18.2567 4.39653 17.6143 3.7542 16.7984 3.50247L11.7639 1.95739C11.5121 1.87927 11.2604 1.84454 11.0087 1.84454H11Z" fill="#000000"/>
<path d="M12.9877 12.6601L16.8244 11.4709C17.2844 11.3233 17.2844 10.6723 16.8244 10.5248L12.9877 9.34425C12.8315 9.29217 12.7099 9.17065 12.6579 9.01441L11.4774 5.17775C11.3385 4.7177 10.6788 4.70902 10.5312 5.17775L9.34202 9.01441C9.28994 9.17065 9.16841 9.29217 9.01217 9.34425L5.16684 10.5248C4.70679 10.6636 4.6981 11.3233 5.16684 11.4709L9.01217 12.6688C9.16841 12.7209 9.28994 12.8424 9.33334 12.9899L10.5312 16.8353C10.6788 17.2953 11.3298 17.2953 11.4774 16.8353L12.6579 12.9899C12.7099 12.8337 12.8315 12.7122 12.9877 12.6601Z" fill="#000000"/>
</svg>
